<svg width="159" height="176" viewBox="0 0 159 176" fill="none" xmlns="http://www.w3.org/2000/svg">
<path d="M137.149 142.702L133.029 138.793C132.822 139.012 132.595 139.208 132.385 139.423L108.77 62.1397C111.754 58.2959 113.547 53.4875 113.547 48.2583C113.547 35.7366 103.36 25.5488 90.8379 25.5488V15.1249C91.5932 15.2412 92.3425 15.3211 93.0972 15.46L94.1333 9.87604C92.9666 9.66024 91.8024 9.52134 90.6358 9.3592C89.6879 4.05068 85.0608 0 79.4822 0C73.9037 0 69.2783 4.05128 68.3305 9.35979C67.1639 9.52432 65.9996 9.66084 64.833 9.87664L65.8691 15.4606C66.6244 15.3217 67.3737 15.2418 68.1284 15.1255V25.5494C55.6068 25.5494 45.4189 35.7372 45.4189 48.2589C45.4189 53.4875 47.2133 58.2965 50.1939 62.1373L26.5783 139.42C26.3685 139.205 26.1414 139.009 25.9339 138.79L21.8147 142.699C22.7429 143.676 23.7306 144.601 24.7101 145.535L19.9923 160.978L19.8701 176L36.508 163.521L38.7477 156.192C39.3521 156.556 39.9429 156.956 40.5504 157.296L43.3295 152.345C42.3614 151.8 41.4136 151.181 40.4568 150.585L50.9087 116.387H108.055L118.504 150.588C117.547 151.184 116.602 151.803 115.631 152.347L118.411 157.298C119.021 156.955 119.609 156.554 120.213 156.194L122.453 163.524L139.096 176V161.384L134.253 145.538C135.233 144.604 136.223 143.679 137.149 142.702ZM90.8385 31.2263C100.232 31.2263 107.87 38.8651 107.87 48.2583C107.87 53.7254 105.27 58.5886 101.253 61.7051C99.5902 56.0819 95.806 51.3725 90.8271 48.4854C90.8271 48.4085 90.8385 48.3352 90.8385 48.2583C90.8385 42.1325 88.3884 36.5772 84.4313 32.4865C86.4128 31.6806 88.5732 31.2263 90.8385 31.2263ZM89.896 54.6828C92.9845 57.0786 95.2271 60.5051 96.1017 64.4479C94.4432 64.9898 92.6775 65.2908 90.8385 65.2908C88.5732 65.2908 86.4128 64.8366 84.4313 64.0306C86.9464 61.4303 88.8456 58.2398 89.896 54.6828ZM79.4834 60.9188C76.8831 58.5826 74.9982 55.4714 74.2178 51.94C75.8781 51.3981 77.6438 51.097 79.4834 51.097C81.3231 51.097 83.0888 51.3981 84.749 51.94C83.9681 55.4714 82.0837 58.5826 79.4834 60.9188ZM79.4834 45.4195C77.5728 45.4195 75.7278 45.6836 73.9538 46.1289C74.476 41.965 76.5088 38.272 79.4834 35.5977C82.4581 38.269 84.4909 41.962 85.0131 46.1265C83.239 45.6836 81.394 45.4195 79.4834 45.4195ZM74.5356 64.0306C72.5541 64.8366 70.3937 65.2908 68.1284 65.2908C66.2888 65.2908 64.523 64.9898 62.8628 64.4479C63.7373 60.5051 65.98 57.0786 69.0685 54.6828C70.1213 58.2392 72.0205 61.4303 74.5356 64.0306ZM68.1284 70.9678C72.2673 70.9678 76.1392 69.8381 79.4834 67.8965C82.8277 69.8381 86.6996 70.9678 90.8385 70.9678C92.7491 70.9678 94.5941 70.7037 96.3681 70.2584C95.3148 78.6471 88.1529 85.1615 79.4834 85.1615C70.814 85.1615 63.6521 78.6465 62.5987 70.2584C64.3728 70.7043 66.2178 70.9678 68.1284 70.9678ZM73.8059 11.3556C73.8059 8.22477 76.352 5.67811 79.4834 5.67811C82.6149 5.67811 85.1609 8.22417 85.1609 11.3556V26.2958C83.1454 26.818 81.2408 27.6013 79.4834 28.6207C77.7261 27.5989 75.8214 26.818 73.8059 26.2958V11.3556ZM68.1284 31.2263C70.3937 31.2263 72.5541 31.6806 74.5356 32.4865C70.5785 36.5772 68.1284 42.1325 68.1284 48.2583C68.1284 48.3352 68.1397 48.4085 68.1397 48.4854C63.1609 51.3725 59.3767 56.0819 57.7135 61.7051C53.6968 58.588 51.0964 53.7254 51.0964 48.2583C51.0964 38.8651 58.7352 31.2263 68.1284 31.2263ZM31.6204 160.089L25.5482 164.645V162.229L54.7728 66.582C55.4202 67.056 56.0902 67.4959 56.7853 67.8995C56.7853 67.9788 56.774 68.0527 56.774 68.1296C56.774 70.3889 57.1173 72.5666 57.7337 74.6274L31.6204 160.089ZM52.6464 110.71L61.4548 81.8828C65.608 87.3136 72.1338 90.8391 79.4834 90.8391C86.8331 90.8391 93.3589 87.3136 97.5121 81.8828L106.32 110.71H52.6464ZM133.419 164.645L127.346 160.092L101.234 74.6298C101.85 72.566 102.193 70.3889 102.193 68.129C102.193 68.0521 102.182 67.9788 102.182 67.9019C102.878 67.4989 103.547 67.056 104.195 66.5844L133.419 162.229V164.645Z" fill="black"/>
<path d="M115.657 17.2174C112.299 15.5029 108.784 14.0096 105.216 12.7864L103.38 18.1599C106.692 19.2925 109.954 20.6779 113.074 22.2731L115.657 17.2174Z" fill="black"/>
<path d="M148.197 48.0288C146.298 44.7757 144.147 41.6216 141.799 38.6613L137.351 42.1868C139.534 44.9403 141.532 47.8672 143.295 50.8872L148.197 48.0288Z" fill="black"/>
<path d="M134.131 30.2922C131.386 27.6949 128.437 25.2734 125.36 23.0988L122.081 27.7342C124.936 29.7551 127.679 32.0037 130.228 34.4168L134.131 30.2922Z" fill="black"/>
<path d="M151.172 70.3746L156.685 69.0261C155.788 65.3558 154.613 61.7224 153.196 58.2166L147.933 60.3453C149.25 63.599 150.34 66.9743 151.172 70.3746Z" fill="black"/>
<path d="M158.589 80.2137L152.941 80.7616C153.171 83.1574 153.29 85.5902 153.29 88.0004C153.29 89.1074 153.267 90.206 153.219 91.3017L158.891 91.5515C158.942 90.3735 158.967 89.1896 158.967 88.0004C158.967 85.4084 158.842 82.7884 158.589 80.2137Z" fill="black"/>
<path d="M149.318 111.953L154.69 113.793C155.916 110.222 156.889 106.528 157.591 102.821L152.01 101.768C151.359 105.211 150.454 108.638 149.318 111.953Z" fill="black"/>
<path d="M139.723 130.654L144.356 133.936C146.544 130.851 148.526 127.589 150.243 124.239L145.193 121.645C143.596 124.759 141.756 127.791 139.723 130.654Z" fill="black"/>
<path d="M95.5276 160.055L96.7598 165.599C100.544 164.756 104.285 163.632 107.885 162.249L105.85 156.95C102.511 158.23 99.0394 159.274 95.5276 160.055Z" fill="black"/>
<path d="M79.4804 161.807C77.6747 161.764 75.875 161.744 74.0753 161.614L73.661 167.274C75.5627 167.416 77.4846 167.484 79.3725 167.484C81.4279 167.521 83.3326 167.418 85.2682 167.276L84.8593 161.616C83.0941 161.744 81.2831 161.807 79.4804 161.807Z" fill="black"/>
<path d="M51.0511 162.238C54.6679 163.626 58.4091 164.753 62.1731 165.587L63.4023 160.043C59.9108 159.271 56.4389 158.224 53.0863 156.938L51.0511 162.238Z" fill="black"/>
<path d="M55.6753 18.1312L53.8446 12.7577C50.2708 13.9726 46.7507 15.4599 43.3867 17.1804L45.9697 22.2361C49.0923 20.6409 52.3566 19.2614 55.6753 18.1312Z" fill="black"/>
<path d="M21.6674 42.1295L17.2221 38.598C14.8686 41.5614 12.7112 44.7125 10.8149 47.9602L15.7175 50.8276C17.4779 47.807 19.482 44.883 21.6674 42.1295Z" fill="black"/>
<path d="M8.68616 124.166C10.4036 127.521 12.3821 130.783 14.5652 133.871L19.2006 130.589C17.1708 127.725 15.3342 124.694 13.7419 121.577L8.68616 124.166Z" fill="black"/>
<path d="M6.94313 101.689L1.36218 102.736C2.06025 106.452 3.03134 110.142 4.25221 113.713L9.6257 111.879C8.49067 108.567 7.58754 105.138 6.94313 101.689Z" fill="black"/>
<path d="M5.67752 87.9973C5.67752 85.5591 5.79674 83.0917 6.03519 80.6762L0.38629 80.1171C0.128167 82.7227 0 85.3743 0 88.0003C0 89.1585 0.0256332 90.3108 0.0739195 91.4637L5.74547 91.214C5.70017 90.1463 5.67752 89.0763 5.67752 87.9973Z" fill="black"/>
<path d="M36.951 27.6865L33.6753 23.051C30.598 25.2227 27.643 27.6382 24.8949 30.2332L28.7924 34.3637C31.3474 31.953 34.0925 29.7074 36.951 27.6865Z" fill="black"/>
<path d="M11.0623 60.2721L5.80211 58.1373C4.38571 61.6288 3.20776 65.2622 2.30225 68.9332L7.81225 70.293C8.65517 66.8891 9.74787 63.5168 11.0623 60.2721Z" fill="black"/>
</svg>
