<svg width="177" height="177" viewBox="0 0 177 177" fill="none" xmlns="http://www.w3.org/2000/svg">
<g clip-path="url(#clip0_4_1211)">
<path d="M166.225 114.312C157.377 105.465 144.541 101.751 132.37 104.417L120.436 92.483L156.893 56.0255C156.897 56.0217 172.857 40.0612 172.857 40.0612C175.513 37.4052 176.976 33.8614 176.976 30.0839C176.976 26.3057 175.513 22.7622 172.857 20.1062L156.895 4.14405C154.239 1.48802 150.695 0.0250012 146.918 0.0250012C143.139 0.0250012 139.596 1.48767 136.939 4.1444L84.5181 56.5651L72.5841 44.6311C75.2512 32.4609 71.5366 19.6236 62.6891 10.7764C52.7674 0.854689 38.3336 -2.53078 25.0206 1.94123C24.0941 2.25271 23.3944 3.02086 23.1707 3.97224C22.947 4.92396 23.2315 5.92339 23.9229 6.61445L43.3553 26.0468L39.7465 39.7442L26.048 43.3482L6.61602 23.9165C5.92461 23.2251 4.92518 22.9406 3.97415 23.1643C3.02278 23.3876 2.25428 24.087 1.94245 25.0135C-2.53302 38.3289 0.851762 52.7651 10.7755 62.6889C19.6231 71.5361 32.4604 75.2507 44.6302 72.584L50.5746 78.528C51.1256 79.079 51.8485 79.3552 52.571 79.3552C53.2935 79.3552 54.0164 79.0797 54.5675 78.528C55.6703 77.4252 55.6703 75.6372 54.5675 74.5348L47.5023 67.4696C46.7902 66.7568 45.7524 66.4778 44.7771 66.7381C34.0839 69.5933 22.5851 66.512 14.7687 58.6957C7.50378 51.4307 4.38104 41.3068 6.12373 31.4107L23.2011 48.4881C23.9112 49.1982 24.9452 49.4775 25.9159 49.2224L42.7752 44.787C43.7594 44.5281 44.5282 43.7596 44.7872 42.7753L49.0345 26.6542L59.7758 15.9128C66.7877 23.6811 69.4566 34.5929 66.7373 44.7777C66.4769 45.7515 66.7559 46.79 67.4688 47.5028L80.5239 60.558L16.8136 124.27C16.7389 124.344 16.6704 124.422 16.6058 124.503C16.5896 124.523 16.5754 124.545 16.5595 124.566C16.5121 124.629 16.4665 124.692 16.4247 124.758C16.4087 124.783 16.3946 124.808 16.3797 124.834C16.3413 124.899 16.3054 124.964 16.2732 125.031C16.2601 125.059 16.2473 125.086 16.2349 125.114C16.2044 125.183 16.1764 125.253 16.1515 125.323C16.1457 125.34 16.137 125.357 16.1311 125.374L0.168998 173.26C-0.1691 174.274 0.0946715 175.393 0.85107 176.149C1.38933 176.688 2.11081 176.977 2.84785 176.977C3.14654 176.977 3.44799 176.929 3.74046 176.832L51.6273 160.87C51.6449 160.864 51.6615 160.855 51.6791 160.849C51.7493 160.824 51.8181 160.797 51.8862 160.766C51.9145 160.753 51.9418 160.741 51.9698 160.727C52.0366 160.695 52.1019 160.659 52.1662 160.621C52.1918 160.606 52.2174 160.592 52.2426 160.576C52.3079 160.534 52.3719 160.489 52.4341 160.441C52.4552 160.425 52.477 160.411 52.4974 160.395C52.5779 160.33 52.6564 160.261 52.7307 160.187L116.442 96.4755L129.498 109.531C130.211 110.244 131.25 110.522 132.223 110.262C142.917 107.407 154.415 110.489 162.231 118.305C169.494 125.567 172.617 135.688 170.877 145.582L153.8 128.505C153.09 127.794 152.055 127.515 151.084 127.771L134.225 132.212C133.241 132.471 132.472 133.24 132.213 134.224L127.972 150.345L117.227 161.091C110.213 153.322 107.543 142.409 110.262 132.223C110.522 131.249 110.244 130.211 109.531 129.498L102.465 122.432C101.362 121.329 99.5745 121.329 98.4718 122.432C97.369 123.535 97.369 125.323 98.4718 126.425L104.416 132.37C101.749 144.54 105.464 157.378 114.311 166.225C114.542 166.456 114.775 166.682 115.012 166.906C115.07 166.977 115.132 167.046 115.198 167.112C115.31 167.225 115.431 167.322 115.556 167.411C122.417 173.673 131.182 177 140.182 177C144.118 177 148.101 176.363 151.987 175.057C152.913 174.745 153.613 173.977 153.836 173.025C154.059 172.074 153.775 171.074 153.084 170.383L133.652 150.951L137.256 137.253L150.954 133.644L170.386 153.076C171.078 153.768 172.079 154.053 173.029 153.829C173.98 153.605 174.748 152.906 175.06 151.978C179.531 138.667 176.146 124.233 166.225 114.312ZM46.4988 21.2045L31.4181 6.12321C39.9864 4.61594 48.7227 6.75895 55.627 12.0762L46.4988 21.2045ZM140.933 8.13693C142.522 6.54738 144.648 5.67206 146.918 5.67206C149.187 5.67206 151.312 6.54738 152.902 8.13693L168.864 24.0991C172.164 27.3992 172.164 32.7683 168.864 36.068L154.898 50.0334L126.967 22.1023L140.933 8.13693ZM7.31261 169.688L12.0633 155.437L21.5642 164.938L7.31261 169.688ZM27.5542 162.941L14.0597 149.447L20.0442 131.493L45.5073 156.957L27.5542 162.941ZM50.7343 154.198L22.8029 126.266L112.332 36.7373L124.301 48.7059L40.7566 132.251C39.6538 133.354 39.6538 135.142 40.7566 136.244C41.3077 136.795 42.0305 137.071 42.7531 137.071C43.4756 137.071 44.1984 136.796 44.7495 136.244L128.294 52.7001L134.278 58.6843C134.83 59.2353 135.553 59.5115 136.275 59.5115C136.998 59.5115 137.72 59.236 138.272 58.6843C139.375 57.5815 139.375 55.7935 138.272 54.691L130.291 46.7105C130.29 46.7094 116.325 32.7441 116.325 32.7441L122.973 26.0959L150.904 54.027L50.7343 154.198ZM145.59 170.877C137.022 172.385 128.284 170.244 121.377 164.928L130.509 155.796L145.59 170.877Z" fill="black"/>
<path d="M63.4763 51.4963C62.3735 50.3935 60.5855 50.3935 59.4831 51.4963L51.4967 59.4827C50.3939 60.5855 50.3939 62.3735 51.4967 63.4759C52.0477 64.027 52.7706 64.3032 53.4931 64.3032C54.2156 64.3032 54.9385 64.0277 55.4895 63.4759L63.476 55.4895C64.5791 54.3871 64.5791 52.5991 63.4763 51.4963Z" fill="black"/>
<path d="M125.504 113.525C124.401 112.422 122.614 112.422 121.511 113.525L113.524 121.512C112.422 122.614 112.422 124.402 113.524 125.505C114.076 126.056 114.799 126.332 115.521 126.332C116.243 126.332 116.966 126.056 117.518 125.505L125.504 117.518C126.607 116.416 126.607 114.628 125.504 113.525Z" fill="black"/>
</g>
<defs>
<clipPath id="clip0_4_1211">
<rect width="177" height="177" fill="white"/>
</clipPath>
</defs>
</svg>
