<svg width="177" height="177" viewBox="0 0 177 177" fill="none" xmlns="http://www.w3.org/2000/svg">
<g clip-path="url(#clip0_4_1229)">
<path d="M149.55 59.028H143.809V48.7849C143.809 47.4206 142.703 46.3146 141.339 46.3146H137.666V36.0715C137.666 34.7072 136.56 33.6012 135.195 33.6012H124.342V14.6319C124.342 13.2675 123.236 12.1616 121.871 12.1616H107.932V10.4019C107.932 9.5282 107.47 8.71945 106.718 8.27518L93.2909 0.343564C92.9104 0.118575 92.4764 0 92.0344 0H84.9655C84.5235 0 84.0895 0.118575 83.7091 0.343564L70.282 8.27518C69.5299 8.71945 69.0681 9.5282 69.0681 10.4019V12.1616H55.1283C53.7639 12.1616 52.658 13.2675 52.658 14.6319V33.6012H41.8046C40.4402 33.6012 39.3342 34.7072 39.3342 36.0715V46.3146H35.6607C34.2963 46.3146 33.1904 47.4206 33.1904 48.7849V59.028H27.4497C26.0854 59.028 24.9794 60.1339 24.9794 61.4983C24.9794 62.8627 26.0854 63.9686 27.4497 63.9686H32.2258V174.53C32.2258 175.894 33.3318 177 34.6961 177H65.8955C67.2598 177 68.3658 175.894 68.3658 174.53V107.554H69.2463C70.6107 107.554 71.7167 106.448 71.7167 105.083C71.7167 103.719 70.6107 102.613 69.2463 102.613H68.3658V98.8867C68.3658 87.7851 77.398 78.7529 88.5 78.7529C93.8803 78.7529 98.9373 80.8466 102.739 84.6478C106.54 88.4491 108.634 93.506 108.634 98.8867V102.613H107.754C106.389 102.613 105.283 103.719 105.283 105.083C105.283 106.448 106.389 107.554 107.754 107.554H108.634V174.53C108.634 175.894 109.74 177 111.104 177H142.303C143.668 177 144.774 175.894 144.774 174.53V63.9686H149.55C150.915 63.9686 152.021 62.8627 152.021 61.4983C152.021 60.1339 150.915 59.028 149.55 59.028ZM74.0087 11.8115L85.6409 4.94063H91.3595L102.991 11.8115V12.1616H74.0087V11.8115ZM57.599 17.1022H119.401V33.6012H57.599V17.1022ZM44.2753 38.5419H132.725V46.3146H44.2753V38.5419ZM38.1314 51.2552H138.868V59.028H38.1314V51.2552ZM37.1668 172.059V128.836H63.4255V172.059H37.1668ZM63.4255 123.896H37.1668V107.554H63.4255V123.896ZM106.232 81.154C101.498 76.4194 95.2002 73.8123 88.5 73.8123C74.6738 73.8123 63.4251 85.0606 63.4251 98.8867V102.613H37.1668V63.9698H139.833V102.613H113.574V98.8867C113.574 92.1861 110.967 85.8887 106.232 81.154ZM139.833 107.554V123.896H113.574V107.554H139.833ZM113.574 172.059V128.836H139.833V172.059H113.574Z" fill="black"/>
<path d="M50.2971 75.2496C45.7917 75.2496 42.1261 78.9152 42.1261 83.4207C42.1261 87.9262 45.7917 91.5917 50.2971 91.5917C54.8026 91.5917 58.4682 87.9262 58.4682 83.4207C58.4682 78.9152 54.8026 75.2496 50.2971 75.2496ZM50.2971 86.6511C48.5159 86.6511 47.0667 85.202 47.0667 83.4207C47.0667 81.6394 48.5159 80.1903 50.2971 80.1903C52.0784 80.1903 53.5276 81.6394 53.5276 83.4207C53.5276 85.202 52.078 86.6511 50.2971 86.6511Z" fill="black"/>
<path d="M64.612 19.2711C61.2592 19.2711 58.5316 21.9987 58.5316 25.3515C58.5316 28.7043 61.2592 31.4319 64.612 31.4319C67.9648 31.4319 70.6924 28.7043 70.6924 25.3515C70.6924 21.9987 67.9648 19.2711 64.612 19.2711ZM64.612 26.4913C63.9838 26.4913 63.4722 25.9801 63.4722 25.3515C63.4722 24.7229 63.9838 24.2117 64.612 24.2117C65.2402 24.2117 65.7518 24.7229 65.7518 25.3515C65.7518 25.9801 65.2402 26.4913 64.612 26.4913Z" fill="black"/>
<path d="M112.388 19.2711C109.036 19.2711 106.308 21.9987 106.308 25.3515C106.308 28.7043 109.036 31.4319 112.388 31.4319C115.741 31.4319 118.469 28.7043 118.469 25.3515C118.469 21.9987 115.741 19.2711 112.388 19.2711ZM112.388 26.4913C111.76 26.4913 111.249 25.9801 111.249 25.3515C111.249 24.7229 111.76 24.2117 112.388 24.2117C113.017 24.2117 113.528 24.7229 113.528 25.3515C113.528 25.9801 113.017 26.4913 112.388 26.4913Z" fill="black"/>
<path d="M126.703 91.5917C131.208 91.5917 134.874 87.9262 134.874 83.4207C134.874 78.9152 131.208 75.2496 126.703 75.2496C122.197 75.2496 118.532 78.9152 118.532 83.4207C118.532 87.9262 122.197 91.5917 126.703 91.5917ZM126.703 80.1903C128.484 80.1903 129.933 81.6394 129.933 83.4207C129.933 85.202 128.484 86.6511 126.703 86.6511C124.922 86.6511 123.472 85.202 123.472 83.4207C123.472 81.6394 124.922 80.1903 126.703 80.1903Z" fill="black"/>
</g>
<defs>
<clipPath id="clip0_4_1229">
<rect width="177" height="177" fill="white"/>
</clipPath>
</defs>
</svg>
