<svg width="1920" height="857" viewBox="0 0 1920 857" fill="none" xmlns="http://www.w3.org/2000/svg">
<g filter="url(#filter0_d_4_660)">
<path d="M212.675 226.26C214.745 226.26 216.5 226.005 217.94 225.495C219.41 224.955 220.61 224.22 221.54 223.29C222.47 222.36 223.145 221.28 223.565 220.05C223.985 218.79 224.195 217.44 224.195 216C224.195 213.12 223.25 210.87 221.36 209.25C219.5 207.63 216.605 206.82 212.675 206.82H206.555V226.26H212.675ZM244.985 261H231.215C228.665 261 226.835 260.04 225.725 258.12L214.835 239.085C214.325 238.275 213.755 237.69 213.125 237.33C212.495 236.94 211.595 236.745 210.425 236.745H206.555V261H191.345V195.435H212.675C217.415 195.435 221.45 195.93 224.78 196.92C228.14 197.88 230.87 199.23 232.97 200.97C235.1 202.71 236.645 204.765 237.605 207.135C238.565 209.505 239.045 212.085 239.045 214.875C239.045 217.005 238.76 219.015 238.19 220.905C237.62 222.795 236.78 224.55 235.67 226.17C234.56 227.76 233.18 229.185 231.53 230.445C229.91 231.705 228.035 232.74 225.905 233.55C226.895 234.06 227.825 234.705 228.695 235.485C229.565 236.235 230.345 237.135 231.035 238.185L244.985 261ZM267.595 207.135V222.435H288.205V233.685H267.595V249.3H294.505V261H252.295V195.435H294.505V207.135H267.595ZM341.912 208.755C341.462 209.475 340.982 210.015 340.472 210.375C339.992 210.735 339.362 210.915 338.582 210.915C337.892 210.915 337.142 210.705 336.332 210.285C335.552 209.835 334.652 209.34 333.632 208.8C332.642 208.26 331.502 207.78 330.212 207.36C328.922 206.91 327.452 206.685 325.802 206.685C322.952 206.685 320.822 207.3 319.412 208.53C318.032 209.73 317.342 211.365 317.342 213.435C317.342 214.755 317.762 215.85 318.602 216.72C319.442 217.59 320.537 218.34 321.887 218.97C323.267 219.6 324.827 220.185 326.567 220.725C328.337 221.235 330.137 221.82 331.967 222.48C333.797 223.11 335.582 223.86 337.322 224.73C339.092 225.6 340.652 226.71 342.002 228.06C343.382 229.41 344.492 231.06 345.332 233.01C346.172 234.93 346.592 237.255 346.592 239.985C346.592 243.015 346.067 245.85 345.017 248.49C343.967 251.13 342.437 253.44 340.427 255.42C338.447 257.37 335.987 258.915 333.047 260.055C330.137 261.165 326.822 261.72 323.102 261.72C321.062 261.72 318.977 261.51 316.847 261.09C314.747 260.67 312.707 260.085 310.727 259.335C308.747 258.555 306.887 257.64 305.147 256.59C303.407 255.54 301.892 254.37 300.602 253.08L305.102 245.97C305.462 245.46 305.927 245.04 306.497 244.71C307.097 244.35 307.742 244.17 308.432 244.17C309.332 244.17 310.232 244.455 311.132 245.025C312.062 245.595 313.097 246.225 314.237 246.915C315.407 247.605 316.742 248.235 318.242 248.805C319.742 249.375 321.512 249.66 323.552 249.66C326.312 249.66 328.457 249.06 329.987 247.86C331.517 246.63 332.282 244.695 332.282 242.055C332.282 240.525 331.862 239.28 331.022 238.32C330.182 237.36 329.072 236.565 327.692 235.935C326.342 235.305 324.797 234.75 323.057 234.27C321.317 233.79 319.532 233.265 317.702 232.695C315.872 232.095 314.087 231.375 312.347 230.535C310.607 229.665 309.047 228.54 307.667 227.16C306.317 225.75 305.222 224.01 304.382 221.94C303.542 219.84 303.122 217.26 303.122 214.2C303.122 211.74 303.617 209.34 304.607 207C305.597 204.66 307.052 202.575 308.972 200.745C310.892 198.915 313.247 197.46 316.037 196.38C318.827 195.27 322.022 194.715 325.622 194.715C327.632 194.715 329.582 194.88 331.472 195.21C333.392 195.51 335.207 195.975 336.917 196.605C338.627 197.205 340.217 197.94 341.687 198.81C343.187 199.65 344.522 200.61 345.692 201.69L341.912 208.755ZM372.621 207.135V222.435H393.231V233.685H372.621V249.3H399.531V261H357.321V195.435H399.531V207.135H372.621ZM445.363 235.935L439.288 217.98C438.838 216.84 438.358 215.505 437.848 213.975C437.338 212.415 436.828 210.735 436.318 208.935C435.868 210.765 435.388 212.46 434.878 214.02C434.368 215.58 433.888 216.93 433.438 218.07L427.408 235.935H445.363ZM469.528 261H457.738C456.418 261 455.353 260.7 454.543 260.1C453.733 259.47 453.118 258.675 452.698 257.715L448.828 246.285H423.898L420.028 257.715C419.698 258.555 419.098 259.32 418.228 260.01C417.388 260.67 416.338 261 415.078 261H403.198L428.578 195.435H444.148L469.528 261ZM497.827 226.26C499.897 226.26 501.652 226.005 503.092 225.495C504.562 224.955 505.762 224.22 506.692 223.29C507.622 222.36 508.297 221.28 508.717 220.05C509.137 218.79 509.347 217.44 509.347 216C509.347 213.12 508.402 210.87 506.512 209.25C504.652 207.63 501.757 206.82 497.827 206.82H491.707V226.26H497.827ZM530.137 261H516.367C513.817 261 511.987 260.04 510.877 258.12L499.987 239.085C499.477 238.275 498.907 237.69 498.277 237.33C497.647 236.94 496.747 236.745 495.577 236.745H491.707V261H476.497V195.435H497.827C502.567 195.435 506.602 195.93 509.932 196.92C513.292 197.88 516.022 199.23 518.122 200.97C520.252 202.71 521.797 204.765 522.757 207.135C523.717 209.505 524.197 212.085 524.197 214.875C524.197 217.005 523.912 219.015 523.342 220.905C522.772 222.795 521.932 224.55 520.822 226.17C519.712 227.76 518.332 229.185 516.682 230.445C515.062 231.705 513.187 232.74 511.057 233.55C512.047 234.06 512.977 234.705 513.847 235.485C514.717 236.235 515.497 237.135 516.187 238.185L530.137 261ZM580.495 244.035C580.855 244.035 581.215 244.11 581.575 244.26C581.935 244.38 582.28 244.605 582.61 244.935L588.64 251.28C586 254.73 582.685 257.34 578.695 259.11C574.735 260.85 570.04 261.72 564.61 261.72C559.63 261.72 555.16 260.88 551.2 259.2C547.27 257.49 543.925 255.15 541.165 252.18C538.435 249.18 536.335 245.64 534.865 241.56C533.395 237.45 532.66 232.995 532.66 228.195C532.66 223.305 533.455 218.82 535.045 214.74C536.635 210.63 538.87 207.09 541.75 204.12C544.63 201.15 548.08 198.84 552.1 197.19C556.12 195.54 560.545 194.715 565.375 194.715C567.835 194.715 570.145 194.94 572.305 195.39C574.495 195.81 576.535 196.41 578.425 197.19C580.315 197.94 582.055 198.855 583.645 199.935C585.235 201.015 586.645 202.185 587.875 203.445L582.745 210.33C582.415 210.75 582.025 211.14 581.575 211.5C581.125 211.83 580.495 211.995 579.685 211.995C579.145 211.995 578.635 211.875 578.155 211.635C577.675 211.395 577.165 211.11 576.625 210.78C576.085 210.42 575.485 210.045 574.825 209.655C574.195 209.235 573.43 208.86 572.53 208.53C571.66 208.17 570.625 207.87 569.425 207.63C568.255 207.39 566.875 207.27 565.285 207.27C562.765 207.27 560.455 207.735 558.355 208.665C556.285 209.595 554.485 210.96 552.955 212.76C551.455 214.53 550.285 216.72 549.445 219.33C548.635 221.91 548.23 224.865 548.23 228.195C548.23 231.555 548.68 234.54 549.58 237.15C550.51 239.76 551.755 241.965 553.315 243.765C554.905 245.535 556.75 246.885 558.85 247.815C560.95 248.745 563.2 249.21 565.6 249.21C566.98 249.21 568.24 249.15 569.38 249.03C570.52 248.88 571.585 248.655 572.575 248.355C573.565 248.025 574.495 247.605 575.365 247.095C576.235 246.555 577.12 245.88 578.02 245.07C578.38 244.77 578.77 244.53 579.19 244.35C579.61 244.14 580.045 244.035 580.495 244.035ZM654.32 195.435V261H639.02V233.28H612.38V261H597.08V195.435H612.38V222.84H639.02V195.435H654.32ZM206.645 285.135V300.435H227.255V311.685H206.645V327.3H233.555V339H191.345V273.435H233.555V285.135H206.645ZM304.227 306.195C304.227 310.935 303.402 315.315 301.752 319.335C300.132 323.325 297.837 326.79 294.867 329.73C291.897 332.64 288.312 334.92 284.112 336.57C279.942 338.19 275.307 339 270.207 339H244.737V273.435H270.207C275.307 273.435 279.942 274.26 284.112 275.91C288.312 277.56 291.897 279.84 294.867 282.75C297.837 285.66 300.132 289.125 301.752 293.145C303.402 297.135 304.227 301.485 304.227 306.195ZM288.657 306.195C288.657 302.955 288.237 300.03 287.397 297.42C286.557 294.81 285.342 292.605 283.752 290.805C282.192 288.975 280.272 287.58 277.992 286.62C275.712 285.63 273.117 285.135 270.207 285.135H260.037V327.3H270.207C273.117 327.3 275.712 326.82 277.992 325.86C280.272 324.87 282.192 323.475 283.752 321.675C285.342 319.845 286.557 317.625 287.397 315.015C288.237 312.405 288.657 309.465 288.657 306.195ZM342.364 326.985C344.404 326.985 346.219 326.655 347.809 325.995C349.429 325.305 350.794 324.33 351.904 323.07C353.014 321.81 353.854 320.28 354.424 318.48C355.024 316.65 355.324 314.58 355.324 312.27V273.435H370.534V312.27C370.534 316.29 369.874 319.98 368.554 323.34C367.264 326.7 365.404 329.595 362.974 332.025C360.544 334.455 357.589 336.345 354.109 337.695C350.629 339.045 346.714 339.72 342.364 339.72C337.984 339.72 334.054 339.045 330.574 337.695C327.094 336.345 324.139 334.455 321.709 332.025C319.279 329.595 317.419 326.7 316.129 323.34C314.839 319.98 314.194 316.29 314.194 312.27V273.435H329.404V312.225C329.404 314.535 329.689 316.605 330.259 318.435C330.859 320.235 331.714 321.78 332.824 323.07C333.934 324.33 335.284 325.305 336.874 325.995C338.494 326.655 340.324 326.985 342.364 326.985ZM428.406 322.035C428.766 322.035 429.126 322.11 429.486 322.26C429.846 322.38 430.191 322.605 430.521 322.935L436.551 329.28C433.911 332.73 430.596 335.34 426.606 337.11C422.646 338.85 417.951 339.72 412.521 339.72C407.541 339.72 403.071 338.88 399.111 337.2C395.181 335.49 391.836 333.15 389.076 330.18C386.346 327.18 384.246 323.64 382.776 319.56C381.306 315.45 380.571 310.995 380.571 306.195C380.571 301.305 381.366 296.82 382.956 292.74C384.546 288.63 386.781 285.09 389.661 282.12C392.541 279.15 395.991 276.84 400.011 275.19C404.031 273.54 408.456 272.715 413.286 272.715C415.746 272.715 418.056 272.94 420.216 273.39C422.406 273.81 424.446 274.41 426.336 275.19C428.226 275.94 429.966 276.855 431.556 277.935C433.146 279.015 434.556 280.185 435.786 281.445L430.656 288.33C430.326 288.75 429.936 289.14 429.486 289.5C429.036 289.83 428.406 289.995 427.596 289.995C427.056 289.995 426.546 289.875 426.066 289.635C425.586 289.395 425.076 289.11 424.536 288.78C423.996 288.42 423.396 288.045 422.736 287.655C422.106 287.235 421.341 286.86 420.441 286.53C419.571 286.17 418.536 285.87 417.336 285.63C416.166 285.39 414.786 285.27 413.196 285.27C410.676 285.27 408.366 285.735 406.266 286.665C404.196 287.595 402.396 288.96 400.866 290.76C399.366 292.53 398.196 294.72 397.356 297.33C396.546 299.91 396.141 302.865 396.141 306.195C396.141 309.555 396.591 312.54 397.491 315.15C398.421 317.76 399.666 319.965 401.226 321.765C402.816 323.535 404.661 324.885 406.761 325.815C408.861 326.745 411.111 327.21 413.511 327.21C414.891 327.21 416.151 327.15 417.291 327.03C418.431 326.88 419.496 326.655 420.486 326.355C421.476 326.025 422.406 325.605 423.276 325.095C424.146 324.555 425.031 323.88 425.931 323.07C426.291 322.77 426.681 322.53 427.101 322.35C427.521 322.14 427.956 322.035 428.406 322.035ZM479.64 313.935L473.565 295.98C473.115 294.84 472.635 293.505 472.125 291.975C471.615 290.415 471.105 288.735 470.595 286.935C470.145 288.765 469.665 290.46 469.155 292.02C468.645 293.58 468.165 294.93 467.715 296.07L461.685 313.935H479.64ZM503.805 339H492.015C490.695 339 489.63 338.7 488.82 338.1C488.01 337.47 487.395 336.675 486.975 335.715L483.105 324.285H458.175L454.305 335.715C453.975 336.555 453.375 337.32 452.505 338.01C451.665 338.67 450.615 339 449.355 339H437.475L462.855 273.435H478.425L503.805 339ZM551.474 285.495H533.024V339H517.814V285.495H499.364V273.435H551.474V285.495ZM576.302 285.135V300.435H596.912V311.685H576.302V327.3H603.212V339H561.002V273.435H603.212V285.135H576.302ZM206.645 417H191.345V351.435H206.645V417ZM278.334 351.435V417H270.414C269.244 417 268.254 416.82 267.444 416.46C266.664 416.07 265.884 415.41 265.104 414.48L234.189 375.375C234.309 376.545 234.384 377.685 234.414 378.795C234.474 379.875 234.504 380.895 234.504 381.855V417H221.094V351.435H229.104C229.764 351.435 230.319 351.465 230.769 351.525C231.219 351.585 231.624 351.705 231.984 351.885C232.344 352.035 232.689 352.26 233.019 352.56C233.349 352.86 233.724 353.265 234.144 353.775L265.329 393.15C265.179 391.89 265.074 390.675 265.014 389.505C264.954 388.305 264.924 387.18 264.924 386.13V351.435H278.334ZM350.095 351.435V417H342.175C341.005 417 340.015 416.82 339.205 416.46C338.425 416.07 337.645 415.41 336.865 414.48L305.95 375.375C306.07 376.545 306.145 377.685 306.175 378.795C306.235 379.875 306.265 380.895 306.265 381.855V417H292.855V351.435H300.865C301.525 351.435 302.08 351.465 302.53 351.525C302.98 351.585 303.385 351.705 303.745 351.885C304.105 352.035 304.45 352.26 304.78 352.56C305.11 352.86 305.485 353.265 305.905 353.775L337.09 393.15C336.94 391.89 336.835 390.675 336.775 389.505C336.715 388.305 336.685 387.18 336.685 386.13V351.435H350.095ZM428.966 384.195C428.966 388.935 428.141 393.345 426.491 397.425C424.871 401.505 422.576 405.06 419.606 408.09C416.636 411.09 413.051 413.445 408.851 415.155C404.681 416.865 400.046 417.72 394.946 417.72C389.846 417.72 385.196 416.865 380.996 415.155C376.796 413.445 373.196 411.09 370.196 408.09C367.226 405.06 364.916 401.505 363.266 397.425C361.646 393.345 360.836 388.935 360.836 384.195C360.836 379.455 361.646 375.045 363.266 370.965C364.916 366.885 367.226 363.345 370.196 360.345C373.196 357.345 376.796 354.99 380.996 353.28C385.196 351.57 389.846 350.715 394.946 350.715C400.046 350.715 404.681 351.585 408.851 353.325C413.051 355.035 416.636 357.39 419.606 360.39C422.576 363.39 424.871 366.93 426.491 371.01C428.141 375.09 428.966 379.485 428.966 384.195ZM413.396 384.195C413.396 380.955 412.976 378.045 412.136 375.465C411.296 372.855 410.081 370.65 408.491 368.85C406.931 367.05 405.011 365.67 402.731 364.71C400.451 363.75 397.856 363.27 394.946 363.27C392.006 363.27 389.381 363.75 387.071 364.71C384.791 365.67 382.856 367.05 381.266 368.85C379.706 370.65 378.506 372.855 377.666 375.465C376.826 378.045 376.406 380.955 376.406 384.195C376.406 387.465 376.826 390.405 377.666 393.015C378.506 395.595 379.706 397.785 381.266 399.585C382.856 401.385 384.791 402.765 387.071 403.725C389.381 404.655 392.006 405.12 394.946 405.12C397.856 405.12 400.451 404.655 402.731 403.725C405.011 402.765 406.931 401.385 408.491 399.585C410.081 397.785 411.296 395.595 412.136 393.015C412.976 390.405 413.396 387.465 413.396 384.195ZM496.159 351.435L469.879 417H456.109L429.829 351.435H442.069C443.389 351.435 444.454 351.75 445.264 352.38C446.074 352.98 446.689 353.76 447.109 354.72L459.799 389.82C460.399 391.35 460.984 393.03 461.554 394.86C462.124 396.66 462.664 398.55 463.174 400.53C463.594 398.55 464.059 396.66 464.569 394.86C465.109 393.03 465.679 391.35 466.279 389.82L478.879 354.72C479.209 353.88 479.794 353.13 480.634 352.47C481.504 351.78 482.569 351.435 483.829 351.435H496.159ZM532.329 391.935L526.254 373.98C525.804 372.84 525.324 371.505 524.814 369.975C524.304 368.415 523.794 366.735 523.284 364.935C522.834 366.765 522.354 368.46 521.844 370.02C521.334 371.58 520.854 372.93 520.404 374.07L514.374 391.935H532.329ZM556.494 417H544.704C543.384 417 542.319 416.7 541.509 416.1C540.699 415.47 540.084 414.675 539.664 413.715L535.794 402.285H510.864L506.994 413.715C506.664 414.555 506.064 415.32 505.194 416.01C504.354 416.67 503.304 417 502.044 417H490.164L515.544 351.435H531.114L556.494 417ZM604.162 363.495H585.712V417H570.502V363.495H552.052V351.435H604.162V363.495ZM628.991 363.135V378.435H649.601V389.685H628.991V405.3H655.901V417H613.691V351.435H655.901V363.135H628.991ZM238.46 441.495H220.01V495H204.8V441.495H186.35V429.435H238.46V441.495ZM310.845 462.195C310.845 466.935 310.02 471.345 308.37 475.425C306.75 479.505 304.455 483.06 301.485 486.09C298.515 489.09 294.93 491.445 290.73 493.155C286.56 494.865 281.925 495.72 276.825 495.72C271.725 495.72 267.075 494.865 262.875 493.155C258.675 491.445 255.075 489.09 252.075 486.09C249.105 483.06 246.795 479.505 245.145 475.425C243.525 471.345 242.715 466.935 242.715 462.195C242.715 457.455 243.525 453.045 245.145 448.965C246.795 444.885 249.105 441.345 252.075 438.345C255.075 435.345 258.675 432.99 262.875 431.28C267.075 429.57 271.725 428.715 276.825 428.715C281.925 428.715 286.56 429.585 290.73 431.325C294.93 433.035 298.515 435.39 301.485 438.39C304.455 441.39 306.75 444.93 308.37 449.01C310.02 453.09 310.845 457.485 310.845 462.195ZM295.275 462.195C295.275 458.955 294.855 456.045 294.015 453.465C293.175 450.855 291.96 448.65 290.37 446.85C288.81 445.05 286.89 443.67 284.61 442.71C282.33 441.75 279.735 441.27 276.825 441.27C273.885 441.27 271.26 441.75 268.95 442.71C266.67 443.67 264.735 445.05 263.145 446.85C261.585 448.65 260.385 450.855 259.545 453.465C258.705 456.045 258.285 458.955 258.285 462.195C258.285 465.465 258.705 468.405 259.545 471.015C260.385 473.595 261.585 475.785 263.145 477.585C264.735 479.385 266.67 480.765 268.95 481.725C271.26 482.655 273.885 483.12 276.825 483.12C279.735 483.12 282.33 482.655 284.61 481.725C286.89 480.765 288.81 479.385 290.37 477.585C291.96 475.785 293.175 473.595 294.015 471.015C294.855 468.405 295.275 465.465 295.275 462.195ZM395.305 429.435V495H381.895V457.29C381.895 456.42 381.91 455.475 381.94 454.455C382 453.435 382.09 452.4 382.21 451.35L364.795 485.055C364.255 486.105 363.52 486.9 362.59 487.44C361.69 487.98 360.655 488.25 359.485 488.25H357.415C356.245 488.25 355.195 487.98 354.265 487.44C353.365 486.9 352.645 486.105 352.105 485.055L334.69 451.26C334.78 452.34 334.855 453.405 334.915 454.455C334.975 455.475 335.005 456.42 335.005 457.29V495H321.595V429.435H333.205C333.865 429.435 334.435 429.45 334.915 429.48C335.425 429.51 335.875 429.6 336.265 429.75C336.655 429.9 337 430.14 337.3 430.47C337.63 430.77 337.945 431.205 338.245 431.775L355.12 465.03C355.72 466.17 356.29 467.355 356.83 468.585C357.4 469.815 357.94 471.075 358.45 472.365C358.96 471.045 359.485 469.755 360.025 468.495C360.595 467.235 361.195 466.035 361.825 464.895L378.655 431.775C378.955 431.205 379.255 430.77 379.555 430.47C379.885 430.14 380.245 429.9 380.635 429.75C381.025 429.6 381.46 429.51 381.94 429.48C382.45 429.45 383.035 429.435 383.695 429.435H395.305ZM474.142 462.195C474.142 466.935 473.317 471.345 471.667 475.425C470.047 479.505 467.752 483.06 464.782 486.09C461.812 489.09 458.227 491.445 454.027 493.155C449.857 494.865 445.222 495.72 440.122 495.72C435.022 495.72 430.372 494.865 426.172 493.155C421.972 491.445 418.372 489.09 415.372 486.09C412.402 483.06 410.092 479.505 408.442 475.425C406.822 471.345 406.012 466.935 406.012 462.195C406.012 457.455 406.822 453.045 408.442 448.965C410.092 444.885 412.402 441.345 415.372 438.345C418.372 435.345 421.972 432.99 426.172 431.28C430.372 429.57 435.022 428.715 440.122 428.715C445.222 428.715 449.857 429.585 454.027 431.325C458.227 433.035 461.812 435.39 464.782 438.39C467.752 441.39 470.047 444.93 471.667 449.01C473.317 453.09 474.142 457.485 474.142 462.195ZM458.572 462.195C458.572 458.955 458.152 456.045 457.312 453.465C456.472 450.855 455.257 448.65 453.667 446.85C452.107 445.05 450.187 443.67 447.907 442.71C445.627 441.75 443.032 441.27 440.122 441.27C437.182 441.27 434.557 441.75 432.247 442.71C429.967 443.67 428.032 445.05 426.442 446.85C424.882 448.65 423.682 450.855 422.842 453.465C422.002 456.045 421.582 458.955 421.582 462.195C421.582 465.465 422.002 468.405 422.842 471.015C423.682 473.595 424.882 475.785 426.442 477.585C428.032 479.385 429.967 480.765 432.247 481.725C434.557 482.655 437.182 483.12 440.122 483.12C443.032 483.12 445.627 482.655 447.907 481.725C450.187 480.765 452.107 479.385 453.667 477.585C455.257 475.785 456.472 473.595 457.312 471.015C458.152 468.405 458.572 465.465 458.572 462.195ZM506.223 460.26C508.293 460.26 510.048 460.005 511.488 459.495C512.958 458.955 514.158 458.22 515.088 457.29C516.018 456.36 516.693 455.28 517.113 454.05C517.533 452.79 517.743 451.44 517.743 450C517.743 447.12 516.798 444.87 514.908 443.25C513.048 441.63 510.153 440.82 506.223 440.82H500.103V460.26H506.223ZM538.533 495H524.763C522.213 495 520.383 494.04 519.273 492.12L508.383 473.085C507.873 472.275 507.303 471.69 506.673 471.33C506.043 470.94 505.143 470.745 503.973 470.745H500.103V495H484.893V429.435H506.223C510.963 429.435 514.998 429.93 518.328 430.92C521.688 431.88 524.418 433.23 526.518 434.97C528.648 436.71 530.193 438.765 531.153 441.135C532.113 443.505 532.593 446.085 532.593 448.875C532.593 451.005 532.308 453.015 531.738 454.905C531.168 456.795 530.328 458.55 529.218 460.17C528.108 461.76 526.728 463.185 525.078 464.445C523.458 465.705 521.583 466.74 519.453 467.55C520.443 468.06 521.373 468.705 522.243 469.485C523.113 470.235 523.893 471.135 524.583 472.185L538.533 495ZM567.173 460.26C569.243 460.26 570.998 460.005 572.438 459.495C573.908 458.955 575.108 458.22 576.038 457.29C576.968 456.36 577.643 455.28 578.063 454.05C578.483 452.79 578.693 451.44 578.693 450C578.693 447.12 577.748 444.87 575.858 443.25C573.998 441.63 571.103 440.82 567.173 440.82H561.053V460.26H567.173ZM599.483 495H585.713C583.163 495 581.333 494.04 580.223 492.12L569.333 473.085C568.823 472.275 568.253 471.69 567.623 471.33C566.993 470.94 566.093 470.745 564.923 470.745H561.053V495H545.843V429.435H567.173C571.913 429.435 575.948 429.93 579.278 430.92C582.638 431.88 585.368 433.23 587.468 434.97C589.598 436.71 591.143 438.765 592.103 441.135C593.063 443.505 593.543 446.085 593.543 448.875C593.543 451.005 593.258 453.015 592.688 454.905C592.118 456.795 591.278 458.55 590.168 460.17C589.058 461.76 587.678 463.185 586.028 464.445C584.408 465.705 582.533 466.74 580.403 467.55C581.393 468.06 582.323 468.705 583.193 469.485C584.063 470.235 584.843 471.135 585.533 472.185L599.483 495ZM670.001 462.195C670.001 466.935 669.176 471.345 667.526 475.425C665.906 479.505 663.611 483.06 660.641 486.09C657.671 489.09 654.086 491.445 649.886 493.155C645.716 494.865 641.081 495.72 635.981 495.72C630.881 495.72 626.231 494.865 622.031 493.155C617.831 491.445 614.231 489.09 611.231 486.09C608.261 483.06 605.951 479.505 604.301 475.425C602.681 471.345 601.871 466.935 601.871 462.195C601.871 457.455 602.681 453.045 604.301 448.965C605.951 444.885 608.261 441.345 611.231 438.345C614.231 435.345 617.831 432.99 622.031 431.28C626.231 429.57 630.881 428.715 635.981 428.715C641.081 428.715 645.716 429.585 649.886 431.325C654.086 433.035 657.671 435.39 660.641 438.39C663.611 441.39 665.906 444.93 667.526 449.01C669.176 453.09 670.001 457.485 670.001 462.195ZM654.431 462.195C654.431 458.955 654.011 456.045 653.171 453.465C652.331 450.855 651.116 448.65 649.526 446.85C647.966 445.05 646.046 443.67 643.766 442.71C641.486 441.75 638.891 441.27 635.981 441.27C633.041 441.27 630.416 441.75 628.106 442.71C625.826 443.67 623.891 445.05 622.301 446.85C620.741 448.65 619.541 450.855 618.701 453.465C617.861 456.045 617.441 458.955 617.441 462.195C617.441 465.465 617.861 468.405 618.701 471.015C619.541 473.595 620.741 475.785 622.301 477.585C623.891 479.385 625.826 480.765 628.106 481.725C630.416 482.655 633.041 483.12 635.981 483.12C638.891 483.12 641.486 482.655 643.766 481.725C646.046 480.765 647.966 479.385 649.526 477.585C651.116 475.785 652.331 473.595 653.171 471.015C654.011 468.405 654.431 465.465 654.431 462.195ZM768.407 429.435L748.157 495H734.387L722.057 454.365C721.817 453.735 721.592 453.045 721.382 452.295C721.172 451.515 720.962 450.705 720.752 449.865C720.542 450.705 720.332 451.515 720.122 452.295C719.912 453.045 719.687 453.735 719.447 454.365L706.937 495H693.167L672.917 429.435H685.697C687.017 429.435 688.112 429.735 688.982 430.335C689.882 430.935 690.467 431.73 690.737 432.72L699.737 466.92C700.007 468 700.277 469.185 700.547 470.475C700.817 471.735 701.087 473.055 701.357 474.435C701.897 471.615 702.557 469.11 703.337 466.92L713.957 432.72C714.227 431.88 714.797 431.13 715.667 430.47C716.567 429.78 717.647 429.435 718.907 429.435H723.407C724.727 429.435 725.792 429.75 726.602 430.38C727.412 430.98 728.027 431.76 728.447 432.72L738.977 466.92C739.757 469.02 740.417 471.405 740.957 474.075C741.197 472.725 741.437 471.465 741.677 470.295C741.947 469.095 742.217 467.97 742.487 466.92L751.487 432.72C751.727 431.85 752.297 431.085 753.197 430.425C754.097 429.765 755.177 429.435 756.437 429.435H768.407Z" fill="white"/>
</g>
<defs>
<filter id="filter0_d_4_660" x="182.35" y="194.715" width="590.057" height="309.005" filterUnits="userSpaceOnUse" color-interpolation-filters="sRGB">
<feFlood flood-opacity="0" result="BackgroundImageFix"/>
<feColorMatrix in="SourceAlpha" type="matrix" values="0 0 0 0 0 0 0 0 0 0 0 0 0 0 0 0 0 0 127 0" result="hardAlpha"/>
<feOffset dy="4"/>
<feGaussianBlur stdDeviation="2"/>
<feComposite in2="hardAlpha" operator="out"/>
<feColorMatrix type="matrix" values="0 0 0 0 0 0 0 0 0 0 0 0 0 0 0 0 0 0 0.3 0"/>
<feBlend mode="normal" in2="BackgroundImageFix" result="effect1_dropShadow_4_660"/>
<feBlend mode="normal" in="SourceGraphic" in2="effect1_dropShadow_4_660" result="shape"/>
</filter>
</defs>
</svg>
